<svg xmlns="http://www.w3.org/2000/svg" xml:space="preserve" viewBox="0 0 52 52" id="crm">
  <path fill="none" stroke="#000" stroke-linecap="round" stroke-linejoin="round" stroke-miterlimit="10" stroke-width="2" d="M48.5 45.234h-45a1.679 1.679 0 0 1-1.679-1.679v-28.82h48.358v28.82a1.68 1.68 0 0 1-1.679 1.68zM50.179 14.734v-6.29c0-.927-.752-1.678-1.679-1.678h-45c-.927 0-1.679.751-1.679 1.679v6.29"></path>
  <g fill="none" stroke="#000" stroke-linecap="round" stroke-linejoin="round" stroke-miterlimit="10" stroke-width="2">
    <path d="M5.28 20.318h5.166M5.28 24.484h5.166M5.28 28.651h5.166M5.28 32.818h1.708M5.28 36.984h1.708"></path>
  </g>
  <path d="M25.484 34.39c-.45.225-1.348.45-2.498.45-2.667 0-4.674-1.685-4.674-4.786 0-2.961 2.007-4.968 4.94-4.968 1.18 0 1.923.253 2.245.421l-.294.997c-.463-.225-1.123-.393-1.909-.393-2.216 0-3.69 1.417-3.69 3.9 0 2.316 1.333 3.804 3.634 3.804.744 0 1.502-.155 1.993-.393l.253.969zM27.017 25.367c.618-.126 1.502-.197 2.344-.197 1.306 0 2.147.24 2.736.772.478.421.744 1.067.744 1.796 0 1.25-.786 2.077-1.782 2.414v.042c.73.253 1.165.927 1.39 1.909.308 1.32.533 2.231.73 2.596h-1.263c-.156-.267-.366-1.08-.632-2.26-.281-1.305-.786-1.796-1.895-1.838h-1.15V34.7h-1.222v-9.332zm1.222 4.308h1.249c1.305 0 2.133-.716 2.133-1.796 0-1.22-.884-1.755-2.176-1.768-.59 0-1.01.056-1.206.112v3.452zM42.543 30.545c-.07-1.319-.155-2.905-.14-4.083h-.043a56.388 56.388 0 0 1-1.192 3.592l-1.67 4.589h-.926l-1.53-4.505c-.45-1.333-.829-2.554-1.095-3.676h-.028a127.85 127.85 0 0 1-.182 4.181l-.253 4.056H34.32l.66-9.458h1.558l1.613 4.574c.393 1.165.716 2.204.954 3.186h.043c.238-.954.576-1.993.996-3.186l1.684-4.574h1.558l.59 9.458H42.78l-.238-4.154z"></path>
  <path fill="none" stroke="#000" stroke-linecap="round" stroke-linejoin="round" stroke-miterlimit="10" stroke-width="2" d="M13.904 14.734v30.5"></path>
</svg>
